<svg xmlns="http://www.w3.org/2000/svg" xmlns:xlink="http://www.w3.org/1999/xlink" width="400" height="470" viewBox="0 0 400 470">
  <defs>
    <clipPath id="clip-path">
      <rect id="Rectángulo_405946" data-name="Rectángulo 405946" width="13.332" height="10.949" fill="none"/>
    </clipPath>
    <clipPath id="clip-path-2">
      <rect id="Rectángulo_406145" data-name="Rectángulo 406145" width="400" height="470" rx="8" fill="#5ab4f9"/>
    </clipPath>
    <clipPath id="clip-path-3">
      <rect id="Rectángulo_405993" data-name="Rectángulo 405993" width="88.449" height="93.098" fill="none"/>
    </clipPath>
    <clipPath id="clip-path-4">
      <rect id="Rectángulo_405994" data-name="Rectángulo 405994" width="39.531" height="38.3" fill="none"/>
    </clipPath>
    <clipPath id="clip-path-5">
      <rect id="Rectángulo_405995" data-name="Rectángulo 405995" width="49.988" height="15.655" fill="none"/>
    </clipPath>
    <clipPath id="clip-path-6">
      <rect id="Rectángulo_405996" data-name="Rectángulo 405996" width="48.12" height="15.055" fill="none"/>
    </clipPath>
    <clipPath id="clip-path-7">
      <rect id="Rectángulo_405997" data-name="Rectángulo 405997" width="47.187" height="27.827" fill="none"/>
    </clipPath>
    <clipPath id="clip-path-8">
      <rect id="Rectángulo_405998" data-name="Rectángulo 405998" width="30.115" height="112.628" fill="none"/>
    </clipPath>
    <clipPath id="clip-path-9">
      <rect id="Rectángulo_405999" data-name="Rectángulo 405999" width="26.97" height="16.367" fill="none"/>
    </clipPath>
  </defs>
  <g id="Grupo_1113894" data-name="Grupo 1113894" transform="translate(-934.419 -8461.797)">
    <rect id="Rectángulo_405676" data-name="Rectángulo 405676" width="390.419" height="470" rx="8" transform="translate(944 8461.797)" fill="#cbe7e8"/>
    <g id="Grupo_1113889" data-name="Grupo 1113889" transform="translate(1032.561 8503.014)">
      <path id="Trazado_905236" data-name="Trazado 905236" d="M322.01,58.915l-59.188-12.5a2.817,2.817,0,0,1-2.175-3.335l7.725-36.563A2.814,2.814,0,0,1,271.7,4.343l59.192,12.5a2.815,2.815,0,0,1,2.167,3.333l-7.721,36.566a2.818,2.818,0,0,1-3.333,2.171" transform="translate(-260.587 -4.282)" fill="#ebebeb"/>
      <path id="Trazado_905237" data-name="Trazado 905237" d="M273.665,49.8l-.761,3.6-.367-.079.693-3.261-.849-.18.071-.34Z" transform="translate(-265.256 -22.199)" fill="#fff"/>
      <path id="Trazado_905238" data-name="Trazado 905238" d="M277.788,54.288l-.071.339-2.518-.533.056-.262,1.8-1.148c.49-.312.616-.538.672-.786.088-.414-.152-.732-.7-.85a1.262,1.262,0,0,0-1.067.193l-.213-.28a1.66,1.66,0,0,1,1.382-.246c.727.155,1.111.622.985,1.24-.071.34-.243.629-.825,1l-1.476.941Z" transform="translate(-266.372 -22.644)" fill="#fff"/>
      <path id="Trazado_905239" data-name="Trazado 905239" d="M283.91,55.068l-.72-.152-.2.944-.371-.078.2-.942-2.038-.428.08-.281,2.4-1.977.411.088-2.326,1.93,1.559.329.175-.832.36.076-.178.832.72.152Z" transform="translate(-268.584 -23.236)" fill="#fff"/>
      <path id="Trazado_905240" data-name="Trazado 905240" d="M293.019,57l-.717-.152-.2.944-.373-.078.2-.945-2.038-.428.058-.265,2.4-1.981.411.088-2.326,1.93,1.559.329.175-.829.36.073-.175.832.717.153Z" transform="translate(-272.188 -24.005)" fill="#fff"/>
      <path id="Trazado_905241" data-name="Trazado 905241" d="M298.518,57.851c-.129.611-.655,1-1.533.81a1.909,1.909,0,0,1-1.191-.734l.242-.256a1.589,1.589,0,0,0,1.013.648c.611.129.99-.093,1.092-.535s-.133-.81-1.043-1l-.764-.161.563-1.765,1.967.414-.071.339-1.641-.345-.364,1.116.462.1c1.084.224,1.4.737,1.268,1.372" transform="translate(-274.526 -24.306)" fill="#fff"/>
      <path id="Trazado_905242" data-name="Trazado 905242" d="M304.47,59.178a1.141,1.141,0,0,1-1.463.843c-.95-.2-1.33-.974-1.09-2.108a1.665,1.665,0,0,1,2.032-1.523,1.7,1.7,0,0,1,.811.377l-.211.266a1.269,1.269,0,0,0-.663-.317c-.774-.164-1.376.23-1.585,1.2-.016.081-.033.186-.046.294a1.172,1.172,0,0,1,1.229-.382,1.128,1.128,0,0,1,.986,1.346m-.369-.068c.1-.472-.183-.849-.74-.966a.85.85,0,0,0-1.072.541c-.005.017-.01.034-.015.051-.082.394.166.837.788.968a.8.8,0,0,0,1.013-.5.847.847,0,0,0,.027-.095" transform="translate(-276.922 -24.896)" fill="#fff"/>
      <path id="Trazado_905243" data-name="Trazado 905243" d="M312.521,60.79c-.127.6-.661.971-1.528.786a1.915,1.915,0,0,1-1.195-.733l.243-.256a1.59,1.59,0,0,0,1.023.65c.594.127.99-.093,1.076-.527s-.15-.779-.819-.922l-.255-.053.058-.272,1.258-1.037-1.838-.387.068-.339,2.31.489-.056.262-1.285,1.066c.762.211,1.061.7.939,1.274" transform="translate(-280.07 -25.431)" fill="#fff"/>
      <path id="Trazado_905244" data-name="Trazado 905244" d="M318.591,62.153a1.139,1.139,0,0,1-1.459.843c-.954-.2-1.333-.973-1.093-2.1a1.739,1.739,0,0,1,2.843-1.146l-.211.266a1.274,1.274,0,0,0-.663-.317c-.774-.164-1.377.229-1.581,1.2a2.307,2.307,0,0,0-.046.294,1.174,1.174,0,0,1,1.226-.382,1.147,1.147,0,0,1,.985,1.343m-.366-.069c.1-.472-.186-.848-.74-.963a.849.849,0,0,0-1.074.535c-.006.018-.011.036-.016.053-.083.394.166.84.787.972a.805.805,0,0,0,1.011-.524q.009-.029.016-.058Z" transform="translate(-282.513 -26.075)" fill="#fff"/>
      <path id="Trazado_905245" data-name="Trazado 905245" d="M324.775,60.618l-.056.262-2.208,3.011-.4-.083,2.167-2.951-1.849-.392-.143.679-.364-.076.211-1.019Z" transform="translate(-284.872 -26.361)" fill="#fff"/>
      <path id="Trazado_905246" data-name="Trazado 905246" d="M333.261,62.424l-.056.262L331,65.7l-.4-.086,2.167-2.951-1.848-.389-.14.679-.367-.079.213-1Z" transform="translate(-288.232 -27.084)" fill="#fff"/>
      <path id="Trazado_905247" data-name="Trazado 905247" d="M338.237,66.36c-.134.635-.756.917-1.612.738s-1.3-.69-1.167-1.326a.912.912,0,0,1,.875-.748.823.823,0,0,1-.4-.909c.121-.588.7-.845,1.458-.686s1.188.634,1.068,1.232a.839.839,0,0,1-.743.669.925.925,0,0,1,.517,1.031m-.378-.085c.092-.442-.228-.8-.864-.935s-1.069.064-1.165.506.222.8.86.935,1.073-.061,1.165-.506Zm-.8-1.226c.561.117.947-.062,1.03-.453s-.215-.726-.745-.842-.94.062-1.022.458.181.719.738.837" transform="translate(-290.219 -27.681)" fill="#fff"/>
      <path id="Trazado_905248" data-name="Trazado 905248" d="M344.274,66.764a1.664,1.664,0,0,1-2.035,1.523,1.683,1.683,0,0,1-.811-.376l.211-.266a1.32,1.32,0,0,0,.662.317c.775.164,1.377-.229,1.585-1.2.016-.082.033-.187.046-.294a1.177,1.177,0,0,1-1.229.382,1.107,1.107,0,0,1-.981-1.333,1.153,1.153,0,0,1,1.459-.843c.954.19,1.329.96,1.093,2.095m-.36-.819c.086-.394-.165-.84-.784-.972a.805.805,0,0,0-1.019.51.86.86,0,0,0-.024.088c-.1.469.183.845.74.963A.845.845,0,0,0,343.9,66c.006-.018.011-.037.016-.056" transform="translate(-292.593 -28.177)" fill="#fff"/>
      <path id="Trazado_905249" data-name="Trazado 905249" d="M351.941,66.337l-.758,3.594-.37-.079.692-3.265-.846-.177.068-.339Z" transform="translate(-296.248 -28.745)" fill="#fff"/>
      <path id="Trazado_905250" data-name="Trazado 905250" d="M356.059,70.823l-.068.34-2.518-.542.056-.262,1.8-1.148c.49-.312.616-.538.672-.786.088-.414-.152-.732-.7-.846a1.237,1.237,0,0,0-1.064.193l-.213-.283a1.659,1.659,0,0,1,1.382-.243c.727.152,1.111.622.984,1.22a1.524,1.524,0,0,1-.829,1l-1.473.941Z" transform="translate(-297.361 -29.187)" fill="#fff"/>
      <path id="Trazado_905251" data-name="Trazado 905251" d="M361.55,71.144c-.127.6-.661.968-1.528.786a1.914,1.914,0,0,1-1.195-.737l.243-.253a1.6,1.6,0,0,0,1.023.65c.594.127.99-.093,1.076-.527s-.153-.778-.819-.922l-.255-.053.057-.275,1.258-1.034-1.838-.39.068-.339,2.31.486-.056.262L360.6,69.878c.772.207,1.063.689.948,1.266" transform="translate(-299.481 -29.529)" fill="#fff"/>
      <rect id="Rectángulo_405944" data-name="Rectángulo 405944" width="1.595" height="29.4" transform="matrix(0.207, -0.978, 0.978, 0.207, 33.385, 41.036)" fill="#fff"/>
      <rect id="Rectángulo_405945" data-name="Rectángulo 405945" width="1.594" height="15.078" transform="matrix(0.207, -0.978, 0.978, 0.207, 46.744, 47.113)" fill="#fff"/>
      <g id="Grupo_1112908" data-name="Grupo 1112908" transform="translate(6.663 15.533)" opacity="0.5">
        <g id="Grupo_1112907" data-name="Grupo 1112907">
          <g id="Grupo_1112906" data-name="Grupo 1112906" clip-path="url(#clip-path)">
            <path id="Trazado_905252" data-name="Trazado 905252" d="M274.845,30.032l8.811,1.9a1.638,1.638,0,0,1,1.257,1.946l-1.244,5.773a1.639,1.639,0,0,1-1.947,1.257l-8.811-1.9a1.639,1.639,0,0,1-1.257-1.947l1.244-5.773a1.638,1.638,0,0,1,1.946-1.257" transform="translate(-271.617 -29.995)" fill="#fafafa"/>
          </g>
        </g>
      </g>
      <path id="Trazado_905253" data-name="Trazado 905253" d="M272.85,37.494l.122-.578,6.214,1.311a1.329,1.329,0,0,0,.552-2.6l-6.217-1.314.122-.578,6.217,1.311a1.923,1.923,0,0,1-.8,3.761Z" transform="translate(-265.442 -15.944)" fill="#e0e0e0"/>
      <rect id="Rectángulo_405947" data-name="Rectángulo 405947" width="0.59" height="4.36" transform="translate(15.536 21.603) rotate(-78.013)" fill="#e0e0e0"/>
      <rect id="Rectángulo_405948" data-name="Rectángulo 405948" width="2.722" height="31.728" transform="matrix(0.207, -0.978, 0.978, 0.207, 11.209, 10.571)" fill="#fff"/>
      <path id="Trazado_905254" data-name="Trazado 905254" d="M358.842,31.2l4.2.888a1.044,1.044,0,0,1,.806,1.237l-.887,4.2a1.045,1.045,0,0,1-1.238.806l-4.2-.888a1.044,1.044,0,0,1-.806-1.238L357.6,32a1.045,1.045,0,0,1,1.238-.806" transform="translate(-298.637 -14.928)" fill="#fff"/>
      <path id="Trazado_905259" data-name="Trazado 905259" d="M436.974,212.518a16.755,16.755,0,1,1-6.228-22.833,16.736,16.736,0,0,1,6.228,22.833" transform="translate(-318.034 -76.804)" fill="#f5f5f5"/>
      <path id="Trazado_905260" data-name="Trazado 905260" d="M436.126,213.146a12.768,12.768,0,1,1-4.746-17.4,12.754,12.754,0,0,1,4.746,17.4" transform="translate(-320.646 -79.413)" fill="#ebebeb"/>
      <path id="Trazado_905261" data-name="Trazado 905261" d="M437.3,212.494a7.537,7.537,0,0,1,.471-1.5,13.55,13.55,0,0,0,.667-4.128,13.094,13.094,0,0,0-.313-2.854,12.794,12.794,0,0,0-1.133-3.078,12.532,12.532,0,0,0-2.116-2.927,12.2,12.2,0,0,0-1.435-1.266,12.441,12.441,0,0,0-3.468-1.846,12.386,12.386,0,0,0-1.852-.483,12.56,12.56,0,0,0-3.611-.12,12.8,12.8,0,0,0-3.185.782,13.115,13.115,0,0,0-2.541,1.334,13.538,13.538,0,0,0-3.049,2.862c-.616.787-.912,1.266-.98,1.228a3.749,3.749,0,0,1,.669-1.447,11.79,11.79,0,0,1,2.958-3.2,12.866,12.866,0,0,1,2.636-1.523,13.036,13.036,0,0,1,3.382-.925,12.45,12.45,0,0,1,1.9-.112,12.681,12.681,0,0,1,1.983.181,13.117,13.117,0,0,1,2,.506,14.24,14.24,0,0,1,1.952.844,13.978,13.978,0,0,1,1.789,1.148,13.045,13.045,0,0,1,1.538,1.377,13.016,13.016,0,0,1,2.229,3.184,12.792,12.792,0,0,1,1.334,6.359,11.83,11.83,0,0,1-1,4.244,3.731,3.731,0,0,1-.826,1.363" transform="translate(-321.619 -79.111)" fill="#e0e0e0"/>
      <path id="Trazado_905262" data-name="Trazado 905262" d="M425.733,217.223l-1.078,1.946-1.737-.962,1.049-1.893a9.41,9.41,0,0,1-3.555-3.786l2.129-1.59a8.032,8.032,0,0,0,2.687,3.1l1.607-2.9c-1.669-1.537-3.466-3.373-2.09-5.857,1.02-1.841,3.233-2.681,6.151-1.473l1.068-1.929,1.737.962-1.049,1.894a8.982,8.982,0,0,1,2.939,3.013l-2.052,1.656a8.136,8.136,0,0,0-2.157-2.376l-1.636,2.954c1.678,1.519,3.441,3.336,2.085,5.785-1,1.807-3.188,2.639-6.1,1.458m2.517-8.64,1.366-2.467c-1.036-.3-1.679,0-2,.573-.336.608,0,1.228.631,1.893m.669,5.842c.337-.608.016-1.217-.587-1.892L427,214.93c.974.291,1.606.051,1.914-.505" transform="translate(-323.864 -82.512)" fill="#e0e0e0"/>
      <path id="Trazado_905287" data-name="Trazado 905287" d="M355.631,88.083a19.5,19.5,0,1,1-24.767,12.126,19.5,19.5,0,0,1,24.767-12.126" transform="translate(-287.992 -37.041)" fill="#98b1bf"/>
      <path id="Trazado_905289" data-name="Trazado 905289" d="M354.8,91.826a14.785,14.785,0,1,1-16.633,12.67A14.785,14.785,0,0,1,354.8,91.826" transform="translate(-291.248 -38.889)" fill="#e4eaee"/>
      <path id="Trazado_905291" data-name="Trazado 905291" d="M367.44,112.289a14.625,14.625,0,1,1-12.514-16.467h.013a14.626,14.626,0,0,1,12.5,16.466" transform="translate(-291.364 -40.47)" fill="#cbd8df"/>
      <path id="Trazado_905293" data-name="Trazado 905293" d="M359.294,112.464l.509-3.7a7.835,7.835,0,0,1,1.9.787,6.417,6.417,0,0,1,.84.712l.062-.113.756-1.255.162-.294-.564-.783-.339.094a7.053,7.053,0,0,0-2.567-1.134l.277-2.043-.564-.6-.07.51-.869-.115-.289,2.075c-2.9-.119-4.5,1.351-4.745,3.2-.348,2.553,1.745,3.515,3.718,4.29l-.505,3.673a7.093,7.093,0,0,1-3.476-1.916l-1.081,1.741a8.084,8.084,0,0,0,4.288,2.146l-.21,1.538-.72-.084.65.582,1.513.2.286-2.058c2.923.1,4.527-1.335,4.782-3.2.356-2.523-1.777-3.469-3.748-4.249m-1.45-.588c-1.022-.462-1.757-.969-1.639-1.855s.767-1.39,2.083-1.405Zm.7,6.066.446-3.252c1.06.463,1.812,1,1.688,1.894-.112.794-.764,1.34-2.134,1.358" transform="translate(-296.958 -43.815)" fill="#e4eaee"/>
      <path id="Trazado_905295" data-name="Trazado 905295" d="M357.357,119.237l-.28,2.061-1.513-.2.282-2.04a8.063,8.063,0,0,1-4.3-2.145l1.08-1.74a7.151,7.151,0,0,0,3.477,1.916l.505-3.673c-1.971-.78-4.064-1.742-3.711-4.293.256-1.876,1.832-3.324,4.74-3.2l.289-2.075,1.513.2-.282,2.041a7.937,7.937,0,0,1,3.571,1.629l-1.011,1.754a7.718,7.718,0,0,0-2.839-1.405l-.51,3.715c1.974.775,4.107,1.722,3.752,4.277-.24,1.859-1.833,3.292-4.767,3.182m-.424-8.067.451-3.274c-1.334.024-1.976.608-2.058,1.418s.582,1.4,1.607,1.856m2.833,4.716c.121-.9-.625-1.437-1.685-1.9l-.446,3.252c1.365-.021,2.022-.564,2.131-1.353" transform="translate(-296.601 -43.702)" fill="#002b44"/>
      <path id="Trazado_905296" data-name="Trazado 905296" d="M355.126,113.043a1.272,1.272,0,0,1-.371-.485,2.337,2.337,0,0,1-.22-1.443,2.3,2.3,0,0,1,.707-1.283,1.192,1.192,0,0,1,.52-.352,3.839,3.839,0,0,0-.431.4,2.42,2.42,0,0,0-.631,1.235,2.474,2.474,0,0,0,.175,1.374,5.6,5.6,0,0,0,.251.553" transform="translate(-297.769 -45.932)" fill="#fff"/>
      <path id="Trazado_905297" data-name="Trazado 905297" d="M362.229,106.009a1.4,1.4,0,0,1,.02-.627c.057-.346.1-.582.154-.592s.031.279-.02.627-.114.6-.154.592" transform="translate(-300.818 -44.074)" fill="#fff"/>
      <path id="Trazado_905343" data-name="Trazado 905343" d="M372.6,175.609V120.1a3.4,3.4,0,0,0-3.4-3.4H283.519a3.4,3.4,0,0,0-3.4,3.4v55.508a3.4,3.4,0,0,0,3.4,3.4H369.2a3.4,3.4,0,0,0,3.4-3.4" transform="translate(-268.321 -48.792)" fill="#fff"/>
      <path id="Trazado_905344" data-name="Trazado 905344" d="M368.714,193.689H283.371a3.5,3.5,0,0,1-3.5-3.5V153.378h92.753v36.4a3.91,3.91,0,0,1-3.91,3.91" transform="translate(-268.222 -63.311)" fill="#e0e0e0"/>
      <path id="Trazado_905345" data-name="Trazado 905345" d="M420.048,203.332H407.737v-25.6h15.38v22.527a3.07,3.07,0,0,1-3.069,3.069" transform="translate(-318.846 -72.955)" fill="#008d8e"/>
      <rect id="Rectángulo_405971" data-name="Rectángulo 405971" width="45.917" height="11.089" transform="translate(28.819 119.289)" fill="#f5f5f5"/>
      <path id="Trazado_905346" data-name="Trazado 905346" d="M348.343,186.284v.488l-2.032,4.538h-.761l1.989-4.4h-2.3v.9h-.689v-1.522Z" transform="translate(-293.83 -76.339)" fill="#263238"/>
      <path id="Trazado_905347" data-name="Trazado 905347" d="M373.1,189.851c0,.912-.776,1.479-2,1.479s-1.989-.567-1.989-1.479a1.246,1.246,0,0,1,.883-1.214,1.137,1.137,0,0,1-.7-1.084c0-.84.725-1.364,1.81-1.364s1.824.524,1.824,1.364a1.144,1.144,0,0,1-.711,1.084,1.25,1.25,0,0,1,.89,1.214m-.718-.022c0-.553-.488-.9-1.285-.9s-1.271.345-1.271.9.474.919,1.271.919,1.285-.352,1.285-.919M370,187.582c0,.5.409.8,1.1.8s1.12-.309,1.12-.8-.445-.811-1.12-.811-1.1.309-1.1.811" transform="translate(-303.55 -76.301)" fill="#263238"/>
      <path id="Trazado_905348" data-name="Trazado 905348" d="M294.151,207.894a2.318,2.318,0,0,1-2.377,2.635,2.424,2.424,0,0,1-1.249-.294l.272-.56a1.771,1.771,0,0,0,.97.237c1.02,0,1.665-.639,1.665-1.9v-.179a1.676,1.676,0,0,1-1.45.66,1.546,1.546,0,0,1-1.716-1.522,1.619,1.619,0,0,1,1.773-1.586c1.35,0,2.111.9,2.111,2.506m-.883-.955c0-.516-.416-.969-1.2-.969a.988.988,0,0,0-1.105.976c0,.589.438.97,1.142.97a1.045,1.045,0,0,0,1.163-.977" transform="translate(-272.338 -83.902)" fill="#263238"/>
      <path id="Trazado_905349" data-name="Trazado 905349" d="M372.87,167.574h-.955v1.235h-.7v-1.235h-2.793v-.5l2.57-3.288h.776l-2.463,3.173h1.931v-1.092h.675v1.092h.955Z" transform="translate(-303.281 -67.43)" fill="#263238"/>
      <path id="Trazado_905350" data-name="Trazado 905350" d="M294.128,188.177c0,.869-.617,1.565-1.9,1.565a2.878,2.878,0,0,1-1.845-.61l.33-.567a2.256,2.256,0,0,0,1.507.538c.761,0,1.192-.352,1.192-.9,0-.567-.359-.919-1.522-.919h-1.142l.266-2.628h2.836v.625h-2.233l-.137,1.379h.56c1.5,0,2.09.625,2.09,1.515" transform="translate(-272.382 -75.696)" fill="#263238"/>
      <path id="Trazado_905351" data-name="Trazado 905351" d="M321.647,188.084a1.626,1.626,0,0,1-1.781,1.587c-1.35,0-2.111-.9-2.111-2.506a2.318,2.318,0,0,1,2.376-2.635,2.418,2.418,0,0,1,1.249.295l-.273.56a1.743,1.743,0,0,0-.962-.237c-1.02,0-1.673.639-1.673,1.9a1.543,1.543,0,0,0,.007.179,1.673,1.673,0,0,1,1.443-.66,1.553,1.553,0,0,1,1.723,1.522m-.7.029c0-.589-.445-.969-1.149-.969a1.042,1.042,0,0,0-1.156.976c0,.517.416.97,1.192.97a1,1,0,0,0,1.113-.977" transform="translate(-283.22 -75.645)" fill="#263238"/>
      <path id="Trazado_905352" data-name="Trazado 905352" d="M293.646,163.286v5.026h-.711v-4.4H291.8v-.625Z" transform="translate(-272.945 -67.234)" fill="#263238"/>
      <path id="Trazado_905353" data-name="Trazado 905353" d="M322.17,168.194v.625h-3.611v-.488l2.046-1.975c.532-.517.632-.832.632-1.148,0-.517-.366-.833-1.07-.833a1.58,1.58,0,0,0-1.286.546l-.488-.423a2.318,2.318,0,0,1,1.838-.761c1.048,0,1.723.539,1.723,1.4a2.036,2.036,0,0,1-.825,1.58l-1.537,1.479Z" transform="translate(-283.473 -67.412)" fill="#263238"/>
      <path id="Trazado_905354" data-name="Trazado 905354" d="M347.313,167.282c0,.848-.625,1.537-1.9,1.537a2.849,2.849,0,0,1-1.845-.611l.33-.567a2.261,2.261,0,0,0,1.515.538c.754,0,1.185-.344,1.185-.89s-.381-.877-1.242-.877h-.4v-.5l1.263-1.551h-2.419v-.625h3.317v.488l-1.314,1.623c1.005.093,1.515.66,1.515,1.436" transform="translate(-293.439 -67.412)" fill="#263238"/>
      <path id="Trazado_905355" data-name="Trazado 905355" d="M343.607,210.3c0-1.636.876-2.57,2.053-2.57s2.047.934,2.047,2.57-.877,2.57-2.047,2.57-2.053-.933-2.053-2.57m3.382,0c0-1.285-.545-1.931-1.328-1.931s-1.335.646-1.335,1.931.546,1.931,1.335,1.931,1.328-.646,1.328-1.931" transform="translate(-293.456 -84.831)" fill="#263238"/>
      <path id="Trazado_905356" data-name="Trazado 905356" d="M396.753,211.218a1.459,1.459,0,0,1,.122-.517l.338-1h.452l-.266,1.07a.456.456,0,0,1,.3.445.469.469,0,0,1-.481.488.463.463,0,0,1-.467-.488" transform="translate(-314.497 -85.611)" fill="#263238"/>
      <rect id="Rectángulo_405972" data-name="Rectángulo 405972" width="4.903" height="0.516" transform="translate(94.13 115.308)" fill="#263238"/>
      <rect id="Rectángulo_405973" data-name="Rectángulo 405973" width="4.903" height="0.516" transform="translate(94.13 116.863)" fill="#263238"/>
      <rect id="Rectángulo_405974" data-name="Rectángulo 405974" width="3.671" height="0.387" transform="translate(95.318 98.672)" fill="#263238"/>
      <path id="Trazado_905357" data-name="Trazado 905357" d="M422.111,168.074h-4.049v-.764h4.049Zm-3.67-.378,3.293-.009Z" transform="translate(-322.933 -68.827)" fill="#263238"/>
      <rect id="Rectángulo_405975" data-name="Rectángulo 405975" width="0.387" height="3.671" transform="translate(96.96 97.03)" fill="#263238"/>
      <path id="Trazado_905358" data-name="Trazado 905358" d="M421.545,168.64h-.764v-4.049h.764Zm-.386-.378h.008l-.008-3.293Z" transform="translate(-324.01 -67.75)" fill="#263238"/>
      <path id="Trazado_905359" data-name="Trazado 905359" d="M397.141,188.594l-.54-.541-1.162,1.162-1.161-1.162-.541.541,1.161,1.162-1.161,1.161.541.54,1.161-1.161,1.161,1.161.541-.541-1.161-1.161Z" transform="translate(-313.303 -77.04)" fill="#263238"/>
      <rect id="Rectángulo_405976" data-name="Rectángulo 405976" width="3.671" height="0.387" transform="translate(80.568 98.672)" fill="#263238"/>
      <path id="Trazado_905360" data-name="Trazado 905360" d="M397.695,168.074h-4.049v-.764h4.049Zm-3.67-.378,3.293-.009Z" transform="translate(-313.267 -68.827)" fill="#263238"/>
      <path id="Trazado_905361" data-name="Trazado 905361" d="M375.957,129.408v9.421h-.687v-8.8h-2.3v-.619Z" transform="translate(-305.08 -53.821)" fill="#263238"/>
      <path id="Trazado_905362" data-name="Trazado 905362" d="M388.145,129.408v.484l-4.051,8.936h-.753l4.01-8.8h-5.289v1.8h-.673v-2.422Z" transform="translate(-308.414 -53.821)" fill="#263238"/>
      <path id="Trazado_905363" data-name="Trazado 905363" d="M400.284,136.177c0,1.562-1.13,2.718-3.3,2.718a4.529,4.529,0,0,1-3.324-1.265l.35-.525a4.013,4.013,0,0,0,2.974,1.157c1.7,0,2.6-.807,2.6-2.086s-.861-2.087-2.745-2.087h-.593v-.5l2.785-3.566h-5.019v-.619h5.908v.484l-2.827,3.62c2.14.054,3.19,1.13,3.19,2.665" transform="translate(-313.273 -53.821)" fill="#263238"/>
      <path id="Trazado_905364" data-name="Trazado 905364" d="M414.071,136.2c0,1.642-1.359,2.651-3.58,2.651s-3.553-1.009-3.553-2.651a2.363,2.363,0,0,1,2.006-2.342,2.153,2.153,0,0,1-1.669-2.126c0-1.507,1.265-2.436,3.217-2.436s3.243.928,3.243,2.436a2.163,2.163,0,0,1-1.7,2.126,2.386,2.386,0,0,1,2.032,2.342m-.686,0c0-1.252-1.077-2.046-2.894-2.046s-2.867.794-2.867,2.046,1.05,2.059,2.867,2.059,2.894-.794,2.894-2.059m-2.894-2.611c1.6,0,2.557-.713,2.557-1.83,0-1.157-1-1.871-2.557-1.871s-2.53.713-2.53,1.858.928,1.844,2.53,1.844" transform="translate(-318.529 -53.777)" fill="#263238"/>
      <path id="Trazado_905365" data-name="Trazado 905365" d="M289.576,123.528a1.5,1.5,0,1,1-1.08-1.08,1.5,1.5,0,0,1,1.08,1.08" transform="translate(-270.896 -51.048)" fill="#e0e0e0"/>
      <path id="Trazado_905366" data-name="Trazado 905366" d="M297.931,123.528a1.5,1.5,0,1,1-1.079-1.08,1.5,1.5,0,0,1,1.079,1.08" transform="translate(-274.205 -51.048)" fill="#e0e0e0"/>
      <path id="Trazado_905367" data-name="Trazado 905367" d="M305.6,123.528a1.5,1.5,0,1,1-1.08-1.08,1.5,1.5,0,0,1,1.08,1.08" transform="translate(-277.241 -51.048)" fill="#e0e0e0"/>
      <path id="Trazado_905368" data-name="Trazado 905368" d="M279.968,175.6s.008.069.016.2a3.44,3.44,0,0,0,.088.6,3.48,3.48,0,0,0,1.208,1.939,3.11,3.11,0,0,0,1.5.661,5.893,5.893,0,0,0,.953.037l1.045,0,5-.012,31.885-.042,47.289-.029a3.157,3.157,0,0,0,2.819-1.392,3.467,3.467,0,0,0,.582-1.592c.039-.57.01-1.192.019-1.788q0-3.614,0-7.309,0-7.388,0-15.074c0-10.239,0-20.84,0-31.7a3.369,3.369,0,0,0-1.918-3.081,3.253,3.253,0,0,0-.886-.246c-.3-.03-.622-.022-.94-.022h-9.462l-14.774,0-27.93-.008-25.274-.012-5.833,0h-1.426a5.707,5.707,0,0,0-1.383.086,3.245,3.245,0,0,0-2.091,1.67,3.5,3.5,0,0,0-.376,1.338c-.027.463-.008.954-.014,1.426q0,1.427,0,2.824,0,2.794,0,5.463c-.017,14.231-.031,25.747-.04,33.711-.01,3.977-.018,7.066-.024,9.165-.005,1.045-.01,1.842-.013,2.384s-.013.812-.013.812-.008-.275-.013-.812-.007-1.339-.013-2.384c-.005-2.1-.013-5.188-.024-9.165-.01-7.963-.024-19.48-.04-33.711q0-2.669,0-5.463,0-1.4,0-2.824c.006-.479-.014-.946.013-1.442a3.721,3.721,0,0,1,.4-1.421A3.446,3.446,0,0,1,282.5,116.6a5.884,5.884,0,0,1,1.427-.093h1.426l5.833,0,25.274-.012,27.93-.008,14.774,0h9.462c.317,0,.634-.008.968.024a3.477,3.477,0,0,1,.957.266,3.637,3.637,0,0,1,2.071,3.326c0,10.858,0,21.459,0,31.7q0,7.679,0,15.074,0,3.694,0,7.309c-.01.608.021,1.19-.022,1.814a3.726,3.726,0,0,1-.626,1.711,3.39,3.39,0,0,1-3.009,1.493l-47.289-.028-31.885-.042-5-.013-1.045,0a5.966,5.966,0,0,1-.962-.043,3.161,3.161,0,0,1-1.525-.685,3.488,3.488,0,0,1-1.2-1.975,3.217,3.217,0,0,1-.077-.6c0-.136,0-.2,0-.2" transform="translate(-268.222 -48.704)" fill="#263238"/>
      <path id="Trazado_905369" data-name="Trazado 905369" d="M308.19,194.1c-.087,0-.157-8.955-.157-20s.07-20,.157-20,.157,8.953.157,20-.07,20-.157,20" transform="translate(-279.371 -63.596)" fill="#263238"/>
      <path id="Trazado_905370" data-name="Trazado 905370" d="M334.07,182.886c-.087,0-.157-6.444-.157-14.393s.07-14.394.157-14.394.157,6.444.157,14.394-.07,14.393-.157,14.393" transform="translate(-289.618 -63.596)" fill="#263238"/>
      <path id="Trazado_905371" data-name="Trazado 905371" d="M359.8,182.886c-.087,0-.157-6.444-.157-14.393s.07-14.394.157-14.394.157,6.444.157,14.394-.07,14.393-.157,14.393" transform="translate(-299.805 -63.596)" fill="#263238"/>
      <path id="Trazado_905372" data-name="Trazado 905372" d="M384.2,194.077c-.087,0-.157-8.95-.157-19.988s.07-19.99.157-19.99.157,8.948.157,19.99-.07,19.988-.157,19.988" transform="translate(-309.465 -63.596)" fill="#263238"/>
      <path id="Trazado_905373" data-name="Trazado 905373" d="M407.635,194.077c-.087,0-.157-8.95-.157-19.988s.07-19.99.157-19.99.157,8.948.157,19.99-.07,19.988-.157,19.988" transform="translate(-318.743 -63.596)" fill="#263238"/>
      <path id="Trazado_905374" data-name="Trazado 905374" d="M280.43,178.029c0-.087,20.613-.157,46.034-.157s46.04.07,46.04.157-20.609.157-46.04.157-46.034-.07-46.034-.157" transform="translate(-268.443 -73.009)" fill="#263238"/>
      <path id="Trazado_905375" data-name="Trazado 905375" d="M280.43,201.857c0-.087,17.217-.158,38.451-.158s38.454.071,38.454.158-17.214.157-38.454.157-38.451-.07-38.451-.157" transform="translate(-268.443 -82.442)" fill="#263238"/>
    </g>
    <g id="Grupo_1113892" data-name="Grupo 1113892" transform="translate(1233.04 8477.155)">
      <path id="Trazado_905255" data-name="Trazado 905255" d="M365.165,339.216a21.172,21.172,0,1,1-7.869-28.854,21.15,21.15,0,0,1,7.869,28.854" transform="translate(-325.63 -259.937)" fill="#f5f5f5"/>
      <path id="Trazado_905256" data-name="Trazado 905256" d="M362.354,338.27a16.135,16.135,0,1,1-6-21.988,16.116,16.116,0,0,1,6,21.988" transform="translate(-327.191 -261.496)" fill="#ebebeb"/>
      <path id="Trazado_905257" data-name="Trazado 905257" d="M363.184,337.649a9.535,9.535,0,0,1,.595-1.9,17.12,17.12,0,0,0,.844-5.216,16.548,16.548,0,0,0-.4-3.606,16.153,16.153,0,0,0-1.431-3.89,15.833,15.833,0,0,0-2.674-3.7,15.559,15.559,0,0,0-1.813-1.6,15.775,15.775,0,0,0-4.382-2.333,15.742,15.742,0,0,0-2.34-.61,15.83,15.83,0,0,0-4.563-.15,16.168,16.168,0,0,0-4.025.988,16.576,16.576,0,0,0-3.211,1.687,17.124,17.124,0,0,0-3.853,3.614c-.778.995-1.153,1.6-1.239,1.553a4.737,4.737,0,0,1,.845-1.828,14.91,14.91,0,0,1,3.737-4.049,16.294,16.294,0,0,1,3.331-1.924,16.474,16.474,0,0,1,4.274-1.169,15.537,15.537,0,0,1,2.4-.141,15.84,15.84,0,0,1,2.505.229,16.487,16.487,0,0,1,2.53.64,16.542,16.542,0,0,1,4.728,2.516,16.485,16.485,0,0,1,1.943,1.74,16.442,16.442,0,0,1,2.817,4.023,16.169,16.169,0,0,1,1.685,8.036,14.942,14.942,0,0,1-1.268,5.363,4.753,4.753,0,0,1-1.044,1.723" transform="translate(-327.773 -261.315)" fill="#e0e0e0"/>
      <path id="Trazado_905258" data-name="Trazado 905258" d="M347.077,341.358l-1.362,2.459L343.52,342.6l1.325-2.392a11.891,11.891,0,0,1-4.492-4.784l2.69-2.009a10.15,10.15,0,0,0,3.4,3.918l2.03-3.666c-2.108-1.942-4.38-4.262-2.641-7.4,1.289-2.327,4.085-3.388,7.772-1.862l1.35-2.437,2.2,1.216-1.325,2.393a11.357,11.357,0,0,1,3.714,3.807l-2.593,2.093a10.281,10.281,0,0,0-2.726-3l-2.067,3.733c2.121,1.919,4.348,4.216,2.634,7.311-1.265,2.283-4.028,3.334-7.705,1.842m3.18-10.918,1.726-3.117c-1.309-.381-2.122,0-2.524.725-.425.768,0,1.55.8,2.392m.845,7.382c.426-.769.02-1.538-.741-2.391l-1.678,3.029c1.231.367,2.03.064,2.419-.638" transform="translate(-329.114 -263.348)" fill="#e0e0e0"/>
      <path id="Trazado_905333" data-name="Trazado 905333" d="M409.316,258.083l-51.706-8.3a4.79,4.79,0,0,0-5.489,3.97l-8.3,51.706a4.79,4.79,0,0,0,3.97,5.488l1.546.248,14.388,2.31,35.772,5.742a4.791,4.791,0,0,0,5.489-3.971l8.3-51.7a4.79,4.79,0,0,0-3.97-5.489" transform="translate(-329.92 -246.252)" fill="#fff"/>
      <path id="Trazado_905334" data-name="Trazado 905334" d="M351.647,268.312l61.165,9.818,2.4-14.927a4.442,4.442,0,0,0-3.681-5.089l-52.574-8.438a4.26,4.26,0,0,0-4.882,3.531Z" transform="translate(-331.787 -246.228)" fill="#008d8e"/>
      <path id="Trazado_905335" data-name="Trazado 905335" d="M381.787,289.506,378.449,310.3l-4.812-.772,2.718-16.931-4.159-.668.62-3.861Z" transform="translate(-336.649 -255.326)" fill="#263238"/>
      <path id="Trazado_905336" data-name="Trazado 905336" d="M405.3,293.308l-.5,3.119-10.56,16.433-5.227-.839,10.164-15.675-6.892-1.106-.543,3.386-4.277-.686,1.173-7.308Z" transform="translate(-340.263 -255.933)" fill="#263238"/>
      <path id="Trazado_905337" data-name="Trazado 905337" d="M382.277,267.79c-.018.108,4.171.87,9.354,1.7s9.4,1.419,9.417,1.311-4.169-.87-9.355-1.7-9.4-1.419-9.417-1.311" transform="translate(-339.035 -250.524)" fill="#263238"/>
      <path id="Trazado_905338" data-name="Trazado 905338" d="M409.264,258.04a4.235,4.235,0,0,1,.606.124,4.586,4.586,0,0,1,1.619.817,4.825,4.825,0,0,1,1.831,4.3c-.079.673-.208,1.373-.32,2.124-.95,6-2.321,14.655-4.015,25.355-.853,5.352-1.787,11.214-2.789,17.505l-.766,4.8c-.137.815-.246,1.627-.408,2.463a4.9,4.9,0,0,1-1.181,2.287,4.956,4.956,0,0,1-2.213,1.386,5.331,5.331,0,0,1-2.639.084l-5.239-.837-46.032-7.375a4.986,4.986,0,0,1-4.137-4.277,5.325,5.325,0,0,1,.048-1.57l.241-1.5.481-2.993q.96-5.964,1.888-11.744c1.24-7.7,2.435-15.126,3.574-22.2q.855-5.306,1.666-10.338.2-1.256.4-2.495a6.351,6.351,0,0,1,.3-1.24,4.926,4.926,0,0,1,4.943-3.159c6.322.975,12.159,1.952,17.516,2.809l25.336,4.121,6.885,1.137,1.789.3c.4.071.608.115.608.115s-.208-.021-.613-.081l-1.795-.271-6.9-1.075L374.608,252.6c-5.347-.84-11.224-1.808-17.5-2.766a4.735,4.735,0,0,0-2.275.425,4.709,4.709,0,0,0-2.377,2.557,6.02,6.02,0,0,0-.287,1.183q-.2,1.238-.4,2.5-.8,5.028-1.653,10.34c-1.133,7.076-2.321,14.5-3.554,22.2q-.925,5.774-1.882,11.745-.239,1.491-.48,2.993a11.441,11.441,0,0,0-.287,2.979,4.647,4.647,0,0,0,3.856,3.985l46.027,7.4,5.238.844a5.024,5.024,0,0,0,2.5-.072,4.612,4.612,0,0,0,3.194-3.447c.157-.8.273-1.639.408-2.447q.394-2.438.775-4.8c1.017-6.29,1.965-12.149,2.83-17.5,1.74-10.692,3.147-19.346,4.121-25.337.117-.747.252-1.455.334-2.115a4.7,4.7,0,0,0-.157-1.841,4.763,4.763,0,0,0-1.6-2.395,4.7,4.7,0,0,0-1.586-.837,4.5,4.5,0,0,0-.446-.117c-.1-.024-.151-.041-.151-.041" transform="translate(-329.869 -246.209)" fill="#263238"/>
      <path id="Trazado_905339" data-name="Trazado 905339" d="M381.662,259.273l.132.021a1.95,1.95,0,0,0,2.234-1.616l1.6-9.966a1.949,1.949,0,0,0-1.615-2.234l-.132-.021a1.948,1.948,0,0,0-2.233,1.615l-1.6,9.966a1.949,1.949,0,0,0,1.615,2.234" transform="translate(-338.501 -245.237)" fill="#e0e0e0"/>
      <path id="Trazado_905340" data-name="Trazado 905340" d="M381.628,259.212a2.5,2.5,0,0,1-1.056-.647,1.883,1.883,0,0,1-.47-1.317c.06-.553.208-1.231.324-1.953.25-1.48.543-3.212.866-5.124.159-.967.325-1.979.5-3.027a1.766,1.766,0,0,1,2.157-1.529,1.761,1.761,0,0,1,1.211.808,1.849,1.849,0,0,1,.207,1.43c-.164,1.05-.323,2.064-.475,3.032-.292,1.918-.556,3.654-.782,5.138l-.153,1.044a5.113,5.113,0,0,1-.169.9,1.9,1.9,0,0,1-.934,1.043,2.574,2.574,0,0,1-1.224.2.846.846,0,0,0,.327.082,1.93,1.93,0,0,0,.961-.145,2.049,2.049,0,0,0,1.076-1.1,5.1,5.1,0,0,0,.21-.94c.058-.331.118-.678.182-1.04.25-1.48.543-3.212.866-5.124.159-.967.325-1.979.5-3.028a2.242,2.242,0,0,0-.256-1.7,2.154,2.154,0,0,0-1.484-.992,2.153,2.153,0,0,0-2.6,1.859c-.165,1.05-.324,2.063-.476,3.031-.292,1.917-.556,3.653-.782,5.137-.1.74-.223,1.377-.268,1.993a2.021,2.021,0,0,0,.579,1.427,1.878,1.878,0,0,0,.835.5.744.744,0,0,0,.334.044" transform="translate(-338.468 -245.176)" fill="#263238"/>
      <path id="Trazado_905341" data-name="Trazado 905341" d="M406.122,263.2l.132.021a1.949,1.949,0,0,0,2.233-1.616l1.6-9.966a1.95,1.95,0,0,0-1.615-2.234l-.132-.021A1.949,1.949,0,0,0,406.106,251l-1.6,9.966a1.948,1.948,0,0,0,1.615,2.234" transform="translate(-344.29 -246.166)" fill="#e0e0e0"/>
      <path id="Trazado_905342" data-name="Trazado 905342" d="M406.089,263.139a2.49,2.49,0,0,1-1.056-.647,1.88,1.88,0,0,1-.47-1.317c.06-.553.207-1.231.324-1.953.25-1.48.543-3.212.866-5.124.159-.967.325-1.979.5-3.027a1.766,1.766,0,0,1,2.156-1.529,1.764,1.764,0,0,1,1.212.808,1.849,1.849,0,0,1,.207,1.43c-.164,1.05-.323,2.064-.475,3.032-.292,1.918-.556,3.654-.782,5.138l-.153,1.044a5.111,5.111,0,0,1-.169.9,1.906,1.906,0,0,1-.934,1.043,2.574,2.574,0,0,1-1.224.2.863.863,0,0,0,.327.082,1.932,1.932,0,0,0,.962-.145,2.049,2.049,0,0,0,1.076-1.1,5.1,5.1,0,0,0,.21-.94c.058-.331.118-.678.182-1.04.25-1.48.542-3.212.865-5.124.16-.967.326-1.979.5-3.028a2.238,2.238,0,0,0-.255-1.7,2.154,2.154,0,0,0-1.484-.992,2.154,2.154,0,0,0-2.6,1.859c-.164,1.05-.323,2.063-.475,3.031-.292,1.917-.556,3.653-.782,5.137-.1.74-.224,1.377-.268,1.993a2.018,2.018,0,0,0,.579,1.427,1.878,1.878,0,0,0,.835.5.744.744,0,0,0,.334.044" transform="translate(-344.257 -246.105)" fill="#263238"/>
    </g>
    <g id="Enmascarar_grupo_1098740" data-name="Enmascarar grupo 1098740" transform="translate(934.419 8461.797)" clip-path="url(#clip-path-2)">
      <g id="Grupo_1113893" data-name="Grupo 1113893" transform="translate(0 31.717)">
        <path id="Trazado_905271" data-name="Trazado 905271" d="M16.221,364.834c8.266,13.724,26.685,18.46,41.143,10.578s19.477-25.4,11.213-39.121-26.685-18.459-41.141-10.577-19.478,25.4-11.214,39.119" transform="translate(354.806 -34.336)" fill="#f5f5f5"/>
        <path id="Trazado_905272" data-name="Trazado 905272" d="M20.818,360.157c6.3,10.458,20.335,14.067,31.352,8.06s14.843-19.353,8.545-29.811-20.336-14.067-31.352-8.061S14.52,349.7,20.818,360.157" transform="translate(356.438 -33.054)" fill="#ebebeb"/>
        <path id="Trazado_905273" data-name="Trazado 905273" d="M23.174,359.708a12.557,12.557,0,0,0-.848-2.57,22.231,22.231,0,0,1-1.2-7.071,20.869,20.869,0,0,1,2.6-10.163,20,20,0,0,1,1.675-2.587,20.725,20.725,0,0,1,2.134-2.428,22.134,22.134,0,0,1,2.583-2.167,24.67,24.67,0,0,1,2.991-1.816,25.222,25.222,0,0,1,3.254-1.346,23.445,23.445,0,0,1,3.334-.827,23.711,23.711,0,0,1,6.5-.2A23.581,23.581,0,0,1,62,337.054c1.109,1.347,1.643,2.169,1.765,2.1a6.225,6.225,0,0,0-1.2-2.479,20.65,20.65,0,0,0-5.325-5.49,23.642,23.642,0,0,0-4.746-2.608A24.444,24.444,0,0,0,46.4,327a24.538,24.538,0,0,0-7,.119,24.293,24.293,0,0,0-3.6.867,26.035,26.035,0,0,0-3.515,1.445,25.391,25.391,0,0,0-3.222,1.967,23,23,0,0,0-2.77,2.36,21.67,21.67,0,0,0-2.266,2.643,20.977,20.977,0,0,0-1.747,2.81,21.636,21.636,0,0,0-2.023,5.692,21.251,21.251,0,0,0-.379,5.2,19.465,19.465,0,0,0,1.807,7.271c.773,1.606,1.4,2.383,1.488,2.336" transform="translate(353.729 -33.203)" fill="#e0e0e0"/>
        <path id="Trazado_905274" data-name="Trazado 905274" d="M42.364,360.31l1.94,3.334,3.127-1.649-1.887-3.244c2.991-1.812,5.427-4.3,6.4-6.485l-3.834-2.725a13.961,13.961,0,0,1-4.838,5.311l-2.894-4.97c3.005-2.633,6.243-5.778,3.764-10.034-1.837-3.155-5.822-4.594-11.074-2.525l-1.925-3.3-3.128,1.649,1.89,3.245a15.774,15.774,0,0,0-5.292,5.161l3.7,2.837a14.2,14.2,0,0,1,3.884-4.071l2.946,5.06c-3.022,2.6-6.2,5.717-3.754,9.912,1.8,3.095,5.739,4.521,10.978,2.5m-4.531-14.8-2.459-4.227c1.865-.516,3.025,0,3.6.983.606,1.042,0,2.1-1.138,3.244m-1.2,10.008c-.607-1.042-.028-2.085,1.056-3.241l2.392,4.107c-1.755.5-2.894.086-3.448-.866" transform="translate(359.401 -31.531)" fill="#e0e0e0"/>
        <path id="Trazado_905323" data-name="Trazado 905323" d="M342.183,437.866c-.243,0-.44-2.052-.44-4.584s.2-4.584.44-4.584.44,2.052.44,4.584-.2,4.584-.44,4.584" transform="translate(-341.743 -9.614)" fill="#e0e0e0"/>
        <path id="Trazado_905324" data-name="Trazado 905324" d="M337.543,437.866c-.243,0-.44-2.052-.44-4.584s.2-4.584.44-4.584.44,2.052.44,4.584-.2,4.584-.44,4.584" transform="translate(-331.098 -9.614)" fill="#e0e0e0"/>
        <rect id="Rectángulo_405985" data-name="Rectángulo 405985" width="6.807" height="16.097" transform="translate(297.73 45.401)" fill="#8454ee"/>
        <rect id="Rectángulo_405986" data-name="Rectángulo 405986" width="6.807" height="49.247" transform="translate(286.96 12.251)" fill="#455a64"/>
        <rect id="Rectángulo_405988" data-name="Rectángulo 405988" width="6.807" height="19.305" transform="translate(240.929 42.193)" fill="#455a64"/>
        <path id="Trazado_905380" data-name="Trazado 905380" d="M107.363,146.669H121.22a1.046,1.046,0,0,0,1.072-1.02v-.635a1.046,1.046,0,0,0-1.072-1.02H107.363a1.047,1.047,0,0,0-1.072,1.02v.635a1.046,1.046,0,0,0,1.072,1.02" transform="translate(183.34 -75.519)" fill="#e0e0e0"/>
        <path id="Trazado_905381" data-name="Trazado 905381" d="M138.982,146.669h13.857a1.046,1.046,0,0,0,1.072-1.02v-.635a1.046,1.046,0,0,0-1.072-1.02H138.982a1.046,1.046,0,0,0-1.072,1.02v.635a1.046,1.046,0,0,0,1.072,1.02" transform="translate(110.795 -75.519)" fill="#e0e0e0"/>
        <path id="Trazado_905387" data-name="Trazado 905387" d="M195.76,405l-7.151-50.6L40.038,358.381s-12.928,73.463-12.273,104h85.882l.716-10.234,4.581.946s1.063,4.1,2.277,9.288l83.3.145Z" transform="translate(202.776 -26.814)" fill="#263238"/>
        <path id="Trazado_905388" data-name="Trazado 905388" d="M185.879,308.023,142.6,293.988s23.743-89.31,56.869-89.31Z" transform="translate(59.176 -61.472)" fill="#002b44"/>
        <path id="Trazado_905389" data-name="Trazado 905389" d="M179.319,336.994l-5.137-133.716c-8.108-3.521-42.8-7.758-42.8-7.758l-45.145,6.043L48.627,207.7,38.542,299.026,34.294,425.345c48.32,16.964,107.275,11.25,159.125-1.3Z" transform="translate(205.399 -63.592)" fill="#008d8e"/>
        <g id="Grupo_1112952" data-name="Grupo 1112952" transform="translate(298.951 196.864)" opacity="0.3">
          <g id="Grupo_1112951" data-name="Grupo 1112951">
            <g id="Grupo_1112950" data-name="Grupo 1112950" clip-path="url(#clip-path-3)">
              <path id="Trazado_905390" data-name="Trazado 905390" d="M43.116,248.25s25.22,51.043,47.583,70,40.866,23.1,40.866,23.1l-2.682-16.56Z" transform="translate(-43.116 -248.25)"/>
            </g>
          </g>
        </g>
        <path id="Trazado_905391" data-name="Trazado 905391" d="M155.659,233.456c.186.007-.255,13.965-.985,31.171s-1.472,31.157-1.658,31.149.255-13.961.985-31.174,1.472-31.154,1.658-31.147" transform="translate(89.507 -54.81)" fill="#263238"/>
        <path id="Trazado_905392" data-name="Trazado 905392" d="M15.561,199.93S55.549,203.33,60.87,243c2.461,18.347,7.013,47.315,7.013,47.315L28.6,293.58l-5.418-3.82c-3.017-8.569-8.245-26.233-7.511-26.862,1-.853-.114-62.967-.114-62.967" transform="translate(355.182 -62.571)" fill="#002b44"/>
        <path id="Trazado_905393" data-name="Trazado 905393" d="M84.732,346.093a13.906,13.906,0,0,1,1.746-1.307c1.147-.81,2.836-1.945,4.947-3.314,4.221-2.74,10.171-6.364,16.941-10.048s13.08-6.713,17.705-8.78c2.312-1.034,4.2-1.842,5.513-2.371a14.445,14.445,0,0,1,2.07-.767,14.051,14.051,0,0,1-1.96.994l-5.414,2.552c-4.565,2.169-10.819,5.26-17.579,8.931s-12.73,7.229-17.011,9.868l-5.062,3.142a14.294,14.294,0,0,1-1.895,1.1" transform="translate(199.883 -34.892)" fill="#263238"/>
        <path id="Trazado_905394" data-name="Trazado 905394" d="M87.593,336.795a15.518,15.518,0,0,1,3.02-1.863,61.079,61.079,0,0,1,7.876-3.486,61.892,61.892,0,0,1,8.324-2.369,16.162,16.162,0,0,1,3.558-.516,25.658,25.658,0,0,1-3.444.956c-2.13.554-5.05,1.394-8.2,2.529s-5.912,2.357-7.893,3.288a25.412,25.412,0,0,1-3.242,1.462" transform="translate(219.463 -32.8)" fill="#263238"/>
        <path id="Trazado_905395" data-name="Trazado 905395" d="M49.472,281.853c-.186-.009.33-12.024,1.152-26.832s1.639-26.809,1.825-26.8-.33,12.021-1.152,26.834-1.639,26.807-1.825,26.8" transform="translate(326.735 -56.022)" fill="#263238"/>
        <path id="Trazado_905396" data-name="Trazado 905396" d="M165.405,142.4a12.121,12.121,0,0,1-13.742-3.946,6.445,6.445,0,0,1-1.375-4.16,3.817,3.817,0,0,1,2.6-3.372,9.246,9.246,0,0,1-5.417-4.731,6.735,6.735,0,0,1,.733-6.835,6.272,6.272,0,0,1,6.727-2.034,6.73,6.73,0,0,1,2.348-7l11.384-.222Z" transform="translate(84.447 -83.367)" fill="#263238"/>
        <path id="Trazado_905397" data-name="Trazado 905397" d="M122.622,225.34l-1.982-7.333s-23.43,1.9-29.212-19.513c-2.791-10.34-6.719-32.076-10.035-51.788-3.565-21.194,10.577-41.435,32.493-46.518l2.178-.5c23.814-4.141,40.816,12.788,44.509,35.554l12.205,83.407-35.928,25.7Z" transform="translate(165.787 -85.922)" fill="#ae7461"/>
        <path id="Trazado_905398" data-name="Trazado 905398" d="M99.568,198.049a65.406,65.406,0,0,0,27.906-12.777s-3.413,14.953-26.429,18.242Z" transform="translate(186.859 -65.964)" fill="#6f4439"/>
        <path id="Trazado_905399" data-name="Trazado 905399" d="M137.365,155.441a3.321,3.321,0,0,0,3.9,2.373,3.036,3.036,0,0,0,2.615-3.536,3.323,3.323,0,0,0-3.9-2.376,3.038,3.038,0,0,0-2.617,3.538" transform="translate(121.549 -73.702)" fill="#263238"/>
        <path id="Trazado_905400" data-name="Trazado 905400" d="M135.909,146.295c.5.307,2.5-1.979,5.973-2.775,3.455-.842,6.435.265,6.707-.227.14-.222-.452-.848-1.756-1.36a9.547,9.547,0,0,0-5.5-.314,8.816,8.816,0,0,0-4.626,2.708c-.867,1.026-1.043,1.834-.8,1.967" transform="translate(118.817 -76.129)" fill="#263238"/>
        <path id="Trazado_905401" data-name="Trazado 905401" d="M114.542,150.322a3.321,3.321,0,0,0,3.9,2.373,3.035,3.035,0,0,0,2.615-3.536,3.324,3.324,0,0,0-3.9-2.376,3.037,3.037,0,0,0-2.616,3.538" transform="translate(173.913 -74.887)" fill="#263238"/>
        <path id="Trazado_905402" data-name="Trazado 905402" d="M109.444,140.372c.5.307,2.507-1.979,5.976-2.775,3.453-.842,6.434.266,6.707-.225.139-.222-.449-.851-1.759-1.36a9.528,9.528,0,0,0-5.5-.314,8.806,8.806,0,0,0-4.627,2.707c-.865,1.026-1.042,1.834-.8,1.967" transform="translate(179.53 -77.5)" fill="#263238"/>
        <path id="Trazado_905403" data-name="Trazado 905403" d="M133.6,166.926c-.032-.192-2.279-.047-5.881.339-.907.119-1.789.147-2.085-.4a4.221,4.221,0,0,1-.049-2.634q.466-3.347.975-7.024c1.3-9.979,2-18.1,1.583-18.147s-1.817,8-3.113,17.985c-.3,2.456-.586,4.8-.856,7.037-.089,1.034-.388,2.255.388,3.414a2.324,2.324,0,0,0,1.772.894,6.494,6.494,0,0,0,1.554-.15c3.562-.635,5.747-1.127,5.712-1.316" transform="translate(149.06 -76.661)" fill="#263238"/>
        <path id="Trazado_905404" data-name="Trazado 905404" d="M109.789,136.646c.744.681,3.741-1.208,7.721-2.534,3.954-1.4,7.525-1.776,7.64-2.751.039-.461-.892-.993-2.533-1.222a14.226,14.226,0,0,0-6.34.729,13.634,13.634,0,0,0-5.362,3.3c-1.107,1.174-1.465,2.15-1.126,2.479" transform="translate(176.111 -78.75)" fill="#263238"/>
        <path id="Trazado_905405" data-name="Trazado 905405" d="M137.7,138.323c.8.608,2.991-.724,5.855-1.427,2.837-.8,5.435-.727,5.793-1.64.149-.438-.426-1.1-1.672-1.563a8.764,8.764,0,0,0-5.088-.121,8.419,8.419,0,0,0-4.3,2.592c-.818,1.006-.953,1.856-.59,2.159" transform="translate(115.853 -78.005)" fill="#263238"/>
        <path id="Trazado_905406" data-name="Trazado 905406" d="M85.581,136.893s2.507-14.828,8.518-19.547c7.277-5.713,13.038,2.081,20.365-1.834s14.269-9.389,23.786-5.469c10.418,4.289,7.435,9.686,10.419,19.088,12.1,38.118,22.314,47.322,19.76,28.637-.278-2.047,5.129-4.98,3.833-13.6-1.68-11.181-4.638-24.542-9.185-31.7-3.834-6.032-8.9-9.638-17.2-12.985-13.093-5.284-28.359-1.922-38.441,1.464s-27.112,19.328-21.856,35.947" transform="translate(161.247 -86.46)" fill="#263238"/>
        <path id="Trazado_905407" data-name="Trazado 905407" d="M75.911,147.46a6.03,6.03,0,0,1,5.176-7.151c4.306-.6,9.573.591,11.416,8.932,3.269,14.795-13.018,14.865-13.137,14.447-.083-.284-2.145-10.024-3.455-16.227" transform="translate(252.179 -76.403)" fill="#ae7461"/>
        <path id="Trazado_905408" data-name="Trazado 905408" d="M81.263,156.52c.058-.062.312.127.813.234a2.888,2.888,0,0,0,2.035-.366c1.516-.9,2.35-3.66,1.837-6.341a8.482,8.482,0,0,0-1.574-3.538,3.209,3.209,0,0,0-2.475-1.571,1.4,1.4,0,0,0-1.442,1.026c-.118.456.047.731-.03.773-.036.046-.388-.182-.4-.818a1.638,1.638,0,0,1,.406-1.049,2.129,2.129,0,0,1,1.415-.676,3.943,3.943,0,0,1,3.337,1.728,8.739,8.739,0,0,1,1.851,3.936c.559,3-.428,6.112-2.541,7.18a3.107,3.107,0,0,1-2.564.1c-.562-.27-.717-.585-.669-.622" transform="translate(252.433 -75.478)" fill="#6f4439"/>
        <path id="Trazado_905409" data-name="Trazado 905409" d="M136.318,123.166c-.039.009-.069.028-.106.038-.092.027-.184.049-.273.08Z" transform="translate(130.939 -80.341)" fill="#8454ee"/>
        <path id="Trazado_905410" data-name="Trazado 905410" d="M82.5,112.151c.432-4.041,3.5-7.535,7.27-9.434s8.167-2.393,12.435-2.291c-1.614-5.277,3.642-10.638,9.327-11.61s11.406,1.108,16.768,3.151c5.949-5.416,16.855-4.553,21.781,1.724A14.524,14.524,0,0,1,163.524,91.2a13.514,13.514,0,0,1,8.977,9.841,10.952,10.952,0,0,1,9.483,5.164,9.876,9.876,0,0,1-.34,10.389,7.324,7.324,0,0,1,4.878,7,7.407,7.407,0,0,1-5.536,6.547l-13.376-7.2c-5.918,2.3-13.532-1.293-15.2-7.164a13.9,13.9,0,0,1-14.588-.2,9.338,9.338,0,0,1-5.273,7,10.216,10.216,0,0,1-9.051-.283,10.83,10.83,0,0,1-5.318,10.422,12.061,12.061,0,0,1-12.173-.232,11.1,11.1,0,0,1-13.95,2.05,9.886,9.886,0,0,1-3.095-13.1c-4.168-.878-6.9-5.245-6.465-9.285" transform="translate(149.955 -88.391)" fill="#263238"/>
        <path id="Trazado_905411" data-name="Trazado 905411" d="M84.451,114.389c-.052.025.08.467.568,1.161a7.61,7.61,0,0,0,2.807,2.344,8.26,8.26,0,0,0,5.626.661,8.467,8.467,0,0,0,5.54-4.226l-.9.156a9.908,9.908,0,0,0,3.656,2.076,10.6,10.6,0,0,0,8.467-.883,9.19,9.19,0,0,0,4.094-5.366,8.554,8.554,0,0,0,.106-4.453,3.15,3.15,0,0,0-.676-1.494c-.237.022.936,2.282-.212,5.723a8.69,8.69,0,0,1-3.869,4.726,9.69,9.69,0,0,1-7.548.7,8.953,8.953,0,0,1-3.233-1.81L98.3,113.2l-.334.663a7.585,7.585,0,0,1-4.771,3.779,7.71,7.71,0,0,1-5.048-.381c-2.731-1.213-3.545-3-3.7-2.873" transform="translate(219.257 -84.693)" fill="#455a64"/>
        <path id="Trazado_905412" data-name="Trazado 905412" d="M121.152,166.76c.009.191-1.908.2-3.781,1.385-1.9,1.145-2.691,2.805-2.871,2.72-.076-.028.008-.491.391-1.15a6.335,6.335,0,0,1,2.114-2.108,6.734,6.734,0,0,1,2.885-.977c.787-.064,1.266.052,1.262.129" transform="translate(173.886 -70.284)" fill="#263238"/>
        <path id="Trazado_905413" data-name="Trazado 905413" d="M155.188,249.447l-2.96,3.686c-2.1,1.133-3.914.264-4.915-2.25L122.929,207.8l7.234-3.576,27.477,41.651s.247,2.108-2.453,3.568" transform="translate(126.449 -61.576)" fill="#455a64"/>
        <path id="Trazado_905414" data-name="Trazado 905414" d="M176.336,218.335A30.71,30.71,0,0,0,194.1,202.9a28.4,28.4,0,0,0,1.1-22.866c-5.9-15.508-23.957-23.56-40.255-17.948a30.7,30.7,0,0,0-17.768,15.433,28.39,28.39,0,0,0-1.1,22.866,30,30,0,0,0,11.754,14.459,32.778,32.778,0,0,0,28.5,3.489m16.883-37.618a26.485,26.485,0,0,1-1.021,21.335,28.65,28.65,0,0,1-16.579,14.4,30.5,30.5,0,0,1-22.424-.972,28.277,28.277,0,0,1-15.133-15.773,26.484,26.484,0,0,1,1.021-21.335,28.649,28.649,0,0,1,16.578-14.4,30.576,30.576,0,0,1,26.592,3.256,27.99,27.99,0,0,1,10.967,13.49" transform="translate(72.432 -71.744)" fill="#263238"/>
        <path id="Trazado_905415" data-name="Trazado 905415" d="M175.217,217.411a30.708,30.708,0,0,0,17.768-15.434,28.392,28.392,0,0,0,1.094-22.865c-5.9-15.508-23.955-23.56-40.253-17.948A30.7,30.7,0,0,0,136.057,176.6a28.39,28.39,0,0,0-1.1,22.866,29.993,29.993,0,0,0,11.754,14.459,32.779,32.779,0,0,0,28.5,3.489M192.1,179.791a26.5,26.5,0,0,1-1.021,21.337,28.65,28.65,0,0,1-16.579,14.4,30.5,30.5,0,0,1-22.424-.972,28.28,28.28,0,0,1-15.133-15.773,26.487,26.487,0,0,1,1.021-21.337,28.651,28.651,0,0,1,16.578-14.4,30.58,30.58,0,0,1,26.592,3.255,28.008,28.008,0,0,1,10.967,13.49" transform="translate(74.999 -71.959)" fill="#455a64"/>
        <path id="Trazado_905416" data-name="Trazado 905416" d="M144.735,204.053c.028-.071,1.412.553,3.795,1.068l.937.187c.326.063.673.092,1.026.143.708.115,1.476.142,2.279.195a28.132,28.132,0,0,0,5.22-.341,27.787,27.787,0,0,0,5.026-1.393c.735-.313,1.446-.59,2.068-.93.315-.164.629-.3.912-.47l.812-.483c2.05-1.265,3.122-2.3,3.175-2.247a6.232,6.232,0,0,1-.753.72,9.327,9.327,0,0,1-.951.777,14.931,14.931,0,0,1-1.34.938l-.809.507c-.283.172-.6.321-.914.491a22.628,22.628,0,0,1-2.081.968,26.72,26.72,0,0,1-5.085,1.436,26.993,26.993,0,0,1-5.292.32c-.814-.06-1.591-.1-2.305-.225-.357-.058-.707-.094-1.035-.163l-.944-.211a15.664,15.664,0,0,1-1.6-.442,9.562,9.562,0,0,1-1.175-.417,6.743,6.743,0,0,1-.968-.429" transform="translate(85.887 -62.606)" fill="#fff"/>
        <path id="Trazado_905417" data-name="Trazado 905417" d="M169.359,252.528c-7.51-6.843-43.058-40.781-43.927-41.258-1.091-.6-17.97-7.939-21.482-6.325S90.51,216.5,90.51,216.5s.238,6.717,8.48,2.611l7.372-3.675-.012.007,8.126,2.534s-10.488,3.178-12.823,5.114-6.463,9.748-4.524,11.789a8.37,8.37,0,0,0,4.376,2.4s-4.7,5.3,2.4,9.32c0,0,.645,4.836,4.129,7s10.355,2.073,10.355,2.073a3.01,3.01,0,0,0,1.246-4.655c-2.075-3.142-6.365-3.909-6.365-3.909l5.638-2.531a24.913,24.913,0,0,1,6.569,4.427s11.3,11.57,16.5,8.606l7.354,8.322c5.6-3.246,20.024-13.406,20.024-13.406" transform="translate(156.697 -61.464)" fill="#ae7461"/>
        <path id="Trazado_905418" data-name="Trazado 905418" d="M144.219,229.3a2.882,2.882,0,0,0-.8-.022,12.834,12.834,0,0,0-2.163.292,14.5,14.5,0,0,0-6.349,3.161,13.472,13.472,0,0,0-3.884,5.73,11.084,11.084,0,0,0-.5,2.022,2.51,2.51,0,0,0-.05.76c.075.012.19-1.071.817-2.694a14.2,14.2,0,0,1,3.887-5.538,15.225,15.225,0,0,1,6.149-3.181c1.755-.447,2.9-.458,2.894-.53" transform="translate(130.129 -55.78)" fill="#6f4439"/>
        <path id="Trazado_905419" data-name="Trazado 905419" d="M147.031,222.344a3.723,3.723,0,0,0-.856-.014,8.35,8.35,0,0,0-1,.071c-.388.048-.836.081-1.318.185a20.229,20.229,0,0,0-3.342.89,22.8,22.8,0,0,0-3.8,1.815,22.188,22.188,0,0,0-3.325,2.521,18.811,18.811,0,0,0-2.251,2.512,12.579,12.579,0,0,0-.727,1.062,7.315,7.315,0,0,0-.489.835,3.264,3.264,0,0,0-.346.745c.07.036.612-1,1.789-2.483a21.043,21.043,0,0,1,2.279-2.421,23.846,23.846,0,0,1,3.285-2.452,28.45,28.45,0,0,1,3.887-2.061,17.686,17.686,0,0,1,3.095-.7c1.9-.4,3.124-.43,3.119-.5" transform="translate(128.464 -57.388)" fill="#6f4439"/>
        <path id="Trazado_905420" data-name="Trazado 905420" d="M134.695,214.506a2.375,2.375,0,0,0-1.105-.335,6.527,6.527,0,0,0-2.791.239,5.282,5.282,0,0,0-2.406,1.369c-.513.485-.724.865-.686.889a9.928,9.928,0,0,1,3.215-1.9,10.37,10.37,0,0,1,3.773-.264" transform="translate(143.222 -59.288)" fill="#6f4439"/>
        <g id="Grupo_1112955" data-name="Grupo 1112955" transform="translate(224.544 103.147)" opacity="0.1">
          <g id="Grupo_1112954" data-name="Grupo 1112954">
            <g id="Grupo_1112953" data-name="Grupo 1112953" clip-path="url(#clip-path-4)">
              <path id="Trazado_905421" data-name="Trazado 905421" d="M175.158,174.863a4.719,4.719,0,0,0-2.9-2.664,3.618,3.618,0,0,0-3.585,1.835,9.676,9.676,0,0,0-1.05,3.986,38.058,38.058,0,0,1-2.191,10.305,14.087,14.087,0,0,1-7.11,7.75c-2.723,1.175-5.811,1.228-8.8,1.356s-6.107.393-8.64,1.905l-.076.046a5,5,0,0,0,.8,8.939c8.909,3.778,20.164,2.495,27.6-3.609,8.7-7.141,11.3-20.173,5.954-29.849" transform="translate(-138.396 -172.149)"/>
            </g>
          </g>
        </g>
        <path id="Trazado_905422" data-name="Trazado 905422" d="M137.2,281.771l-36.773,2.937c-8.474-5.326-67.583-48.943-69.306-50.081L15.743,251.4C48,288.6,70.591,315.777,97.751,334.861c13.422,9.432,35.278,4.34,40.935-12.873,2.767-8.42-1.482-40.218-1.482-40.218" transform="translate(283.207 -54.539)" fill="#ae7461"/>
        <g id="Grupo_1112958" data-name="Grupo 1112958" transform="translate(234.627 422.628)" opacity="0.3">
          <g id="Grupo_1112957" data-name="Grupo 1112957">
            <g id="Grupo_1112956" data-name="Grupo 1112956" clip-path="url(#clip-path-5)">
              <path id="Trazado_905423" data-name="Trazado 905423" d="M122.528,445.112s13.219,1.755,14.159,2.028c.315.091,35.829.091,35.829.091l-.935-15.656-40.382.853Z" transform="translate(-122.528 -431.576)"/>
            </g>
          </g>
        </g>
        <g id="Grupo_1112961" data-name="Grupo 1112961" transform="translate(235.56 408.794)" opacity="0.3">
          <g id="Grupo_1112960" data-name="Grupo 1112960">
            <g id="Grupo_1112959" data-name="Grupo 1112959" clip-path="url(#clip-path-6)">
              <path id="Trazado_905424" data-name="Trazado 905424" d="M123.25,433.278s13.413,2.638,14.159,2.028,33.962-1.131,33.962-1.131l-.933-12.566-40.432-1.267Z" transform="translate(-123.25 -420.343)"/>
            </g>
          </g>
        </g>
        <g id="Grupo_1112964" data-name="Grupo 1112964" transform="translate(235.56 382.235)" opacity="0.3">
          <g id="Grupo_1112963" data-name="Grupo 1112963">
            <g id="Grupo_1112962" data-name="Grupo 1112962" clip-path="url(#clip-path-7)">
              <path id="Trazado_905425" data-name="Trazado 905425" d="M123.971,424.553s12.308,1.539,13.053.93,34.134,1.121,34.134,1.121l-1.806-27.827-38.861,10Z" transform="translate(-123.971 -398.776)"/>
            </g>
          </g>
        </g>
        <path id="Trazado_905426" data-name="Trazado 905426" d="M122.528,240.678s88.84,130.9,82.609,219.942l53,30.855H297c-2.121-23.132-1.831-60.972-13.69-114.055C252.791,240.833,198.568,240.45,198.568,240.45Z" transform="translate(-12.382 -53.192)" fill="#e0e0e0"/>
        <path id="Trazado_905427" data-name="Trazado 905427" d="M255.328,409.694,166.58,424.131c.742,2.7-.674,6.08-2.629,7.934s-4.695,2.724-7.365,3.392a78.1,78.1,0,0,1-16.02,2.271,39.854,39.854,0,0,0-8.483.767c-2.749.708-5.409,2.315-6.522,4.809a6.613,6.613,0,0,0,6.6,8.9h90.125a6.612,6.612,0,0,1-6.6-8.9c1.112-2.494,3.773-4.1,6.521-4.809a39.87,39.87,0,0,1,8.483-.767,78.085,78.085,0,0,0,16.02-2.271c2.67-.668,5.41-1.537,7.365-3.392s1.671-19.254,1.254-22.371" transform="translate(25.569 -14.014)" fill="#e0e0e0"/>
        <path id="Trazado_905428" data-name="Trazado 905428" d="M253.25,399.555l-87.258,12.316c.742,2.7-.674,6.08-2.629,7.933S158.669,422.53,156,423.2a78.188,78.188,0,0,1-16.02,2.271,39.861,39.861,0,0,0-8.483.767c-2.749.708-5.409,2.315-6.522,4.809a6.613,6.613,0,0,0,6.6,8.9H221.7a6.612,6.612,0,0,1-6.6-8.9c1.113-2.494,3.773-4.1,6.521-4.809a39.861,39.861,0,0,1,8.483-.767,78.175,78.175,0,0,0,16.02-2.271c2.67-.667,5.41-1.537,7.365-3.393s.18-17.132-.237-20.249" transform="translate(27.572 -16.361)" fill="#e0e0e0"/>
        <path id="Trazado_905429" data-name="Trazado 905429" d="M255.091,397.1l-88.313,2.773c.742,2.544-.674,5.729-2.63,7.476s-4.695,2.568-7.365,3.2a82.587,82.587,0,0,1-16.02,2.139,42.306,42.306,0,0,0-8.483.724c-2.748.666-5.408,2.181-6.521,4.531s-.157,8.388,6.6,8.388l89.848-.957c-6.763,0-7.442-5.081-6.329-7.431s3.773-3.864,6.522-4.531a42.293,42.293,0,0,1,8.482-.724,82.574,82.574,0,0,0,16.02-2.139c2.67-.628,5.41-1.448,7.366-3.2s1.235-7.313.818-10.25" transform="translate(25.37 -16.929)" fill="#e0e0e0"/>
        <path id="Trazado_905430" data-name="Trazado 905430" d="M221.277,300.869s-10.391-21.4-12.411-27.316,3.175-9.21,8.082-12.78,22.8-4.943,23.668-1.922.577,7.415-2.02,7.689-12.411-.254-18.184,7.013c0,0,23.957-5.07,29.731,0s-4.907,6.992-4.907,6.992,3.175,4.944.287,6.318-18.761,4.394-18.761,4.394l-.289,2.2s7.793-.549,12.988.824,7.506,6.591,7.506,6.591c-1.155,4.119-3.175,4.119-6.063,2.2a13.112,13.112,0,0,0-4.907-2.2s-4.618,5.492-7.793,5.767-6.927-5.767-6.927-5.767" transform="translate(-78.408 -49.316)" fill="#ae7461"/>
        <g id="Grupo_1112967" data-name="Grupo 1112967" transform="translate(151.727 187.249)" opacity="0.3">
          <g id="Grupo_1112966" data-name="Grupo 1112966">
            <g id="Grupo_1112965" data-name="Grupo 1112965" clip-path="url(#clip-path-8)">
              <path id="Trazado_905431" data-name="Trazado 905431" d="M232.046,240.442S213.714,259.67,216.9,289.7s3.132,63.372,3.132,63.372l-10.646-24.477-7.457-70.479L216.989,242.4Z" transform="translate(-201.931 -240.442)"/>
            </g>
          </g>
        </g>
        <path id="Trazado_905432" data-name="Trazado 905432" d="M339.045,240.442l-75.6.012s-31.215.611-31.215,59.162c0,75.832,18.3,101.728-30.3,145.02l78.442,9.372s37.113-3.394,37.075-66.572c-.017-28.832-1.4-80-3.061-104.66-1.208-17.967,12.721-41.108,24.658-42.334" transform="translate(-157.203 -53.193)" fill="#fff"/>
        <path id="Trazado_905433" data-name="Trazado 905433" d="M339.789,240.479l-1.208.23a15.1,15.1,0,0,0-3.35,1.281c-2.8,1.446-6.419,4.5-9.886,9.292a56.3,56.3,0,0,0-8.87,19.395c-2.331,8.146-.493,17.759-.242,28.336.976,21.2,1.786,46.662,2.159,75.353.044,7.17.254,14.549-.188,22.116a101.864,101.864,0,0,1-3.779,22.946,58.839,58.839,0,0,1-11.186,21.7,42.2,42.2,0,0,1-9.7,8.439,32.768,32.768,0,0,1-12.394,4.782l-.03,0-.043,0-70.944-8.468-7.5-.9-.7-.084.514-.468c3.924-3.576,7.776-7.186,11.286-11.043a107.881,107.881,0,0,0,9.648-12.075,70.171,70.171,0,0,0,11.167-27.431c1.7-9.591,1.648-19.207,1.245-28.549s-1.162-18.5-1.725-27.429c-.584-8.928-1.017-17.642-1.221-26.112q-.157-6.353-.141-12.517.107-3.083.212-6.116a57.615,57.615,0,0,1,.372-6.006q.328-2.969.65-5.885a25.694,25.694,0,0,1,.48-2.883q.282-1.428.56-2.845t.555-2.818c.208-.93.525-1.831.78-2.743s.538-1.809.805-2.708a18.656,18.656,0,0,1,.9-2.648c2.526-6.974,6.426-13.307,11.772-17.845a27.342,27.342,0,0,1,8.812-5.24,21.35,21.35,0,0,1,4.871-1.2c1.68-.126,3.279-.032,4.887-.058l18.084.033,28.894.1,24.446.054-24.674.063-28.8.11-17.969.039c-6.376-.7-13.093,1.882-18.234,6.431-5.256,4.48-9.108,10.748-11.6,17.674a18.728,18.728,0,0,0-.892,2.63q-.394,1.339-.793,2.692c-.252.9-.566,1.8-.771,2.724q-.272,1.4-.547,2.8t-.553,2.83a25.361,25.361,0,0,0-.472,2.869q-.316,2.9-.638,5.861a57.125,57.125,0,0,0-.361,5.983q-.1,3.022-.2,6.095,0,6.153.157,12.5c.215,8.462.658,17.167,1.249,26.09.572,8.926,1.336,18.067,1.75,27.44.409,9.357.471,19.013-1.236,28.679a70.75,70.75,0,0,1-11.253,27.67,108.393,108.393,0,0,1-9.7,12.152c-3.528,3.878-7.394,7.5-11.332,11.089l-.188-.553,7.5.9,70.942,8.484h-.072a32.22,32.22,0,0,0,12.1-4.677,41.554,41.554,0,0,0,9.552-8.306,58.28,58.28,0,0,0,11.086-21.482,101.4,101.4,0,0,0,3.781-22.818c.448-7.528.249-14.908.215-22.078-.333-28.683-1.094-54.148-2.011-75.341-.25-5.3-.489-10.328-.8-15.073a41.713,41.713,0,0,1,1.14-13.351,56.266,56.266,0,0,1,9.006-19.449c3.51-4.793,7.173-7.841,10.015-9.264a14.61,14.61,0,0,1,3.392-1.239c.395-.079.692-.1.9-.131l.321-.044" transform="translate(-157.948 -53.231)" fill="#263238"/>
        <g id="Grupo_1112970" data-name="Grupo 1112970" transform="translate(100.8 384.523)" opacity="0.3">
          <g id="Grupo_1112969" data-name="Grupo 1112969">
            <g id="Grupo_1112968" data-name="Grupo 1112968" clip-path="url(#clip-path-9)">
              <path id="Trazado_905434" data-name="Trazado 905434" d="M243.707,400.635h12.7s.693,16.042,14.274,14.955a11.265,11.265,0,0,1-6.754,1.336c-3.878-.464-15.981,2.366-20.216-16.291" transform="translate(-243.707 -400.635)"/>
            </g>
          </g>
        </g>
        <path id="Trazado_905435" data-name="Trazado 905435" d="M248.892,394.062s-2,22.991,28.083,24.366,84.647,0,84.647,0-18.948-3.251-18.948-22.858Z" transform="translate(-240.526 -17.632)" fill="#e0e0e0"/>
        <path id="Trazado_905436" data-name="Trazado 905436" d="M246.9,394.065a3.334,3.334,0,0,1,.439-.013l1.333,0,5.2.042,19.513.228,67.3.94.32,0v.305a22.555,22.555,0,0,0,4.713,14.235,24.817,24.817,0,0,0,13.97,8.305l2.573.573-2.624.064-.166,0c-17.567.4-34.3.6-49.527.581-7.612-.017-14.846-.073-21.615-.227-6.767-.2-13.074-.235-18.822-.988a31.038,31.038,0,0,1-14.278-5.667,21.051,21.051,0,0,1-6.8-9.029,22.486,22.486,0,0,1-1.552-6.9,16.4,16.4,0,0,1-.032-1.836,3.107,3.107,0,0,1,.056-.624c.008.015.006.209.013.624s.027,1.027.1,1.827a23.249,23.249,0,0,0,1.661,6.818,20.936,20.936,0,0,0,6.8,8.84,30.774,30.774,0,0,0,14.116,5.5c5.67.714,12,.725,18.759.906,6.763.128,13.994.163,21.6.165,15.217-.015,31.95-.227,49.509-.631.057,0,.114,0,.166,0l-.051.637a27.009,27.009,0,0,1-8.044-3.144,22.606,22.606,0,0,1-6.336-5.4,23.147,23.147,0,0,1-4.834-14.624l.32.309-67.085-1.22-19.582-.4-5.263-.124-1.369-.042c-.309-.012-.471-.022-.478-.028" transform="translate(-238.534 -17.635)" fill="#263238"/>
        <path id="Trazado_905437" data-name="Trazado 905437" d="M263.451,323.886c0,.332-6.819.6-15.228.6s-15.23-.27-15.23-.6,6.817-.6,15.23-.6,15.228.27,15.228.6" transform="translate(-121.813 -34.017)" fill="#263238"/>
        <path id="Trazado_905438" data-name="Trazado 905438" d="M267.114,323.961c0-.332,1.9-.6,4.249-.6s4.249.27,4.249.6-1.9.6-4.249.6-4.249-.27-4.249-.6" transform="translate(-178.138 -33.999)" fill="#263238"/>
        <path id="Trazado_905439" data-name="Trazado 905439" d="M262,315.3c0,.332-6.818.6-15.228.6s-15.23-.27-15.23-.6,6.817-.6,15.23-.6,15.228.27,15.228.6" transform="translate(-118.475 -36.004)" fill="#263238"/>
        <path id="Trazado_905440" data-name="Trazado 905440" d="M267.114,315.788c0-.332,1.9-.6,4.249-.6s4.249.27,4.249.6-1.9.6-4.249.6-4.249-.27-4.249-.6" transform="translate(-178.138 -35.891)" fill="#263238"/>
        <path id="Trazado_905441" data-name="Trazado 905441" d="M262.264,308.031c0,.332-6.818.6-15.228.6s-15.23-.27-15.23-.6,6.817-.6,15.23-.6,15.228.27,15.228.6" transform="translate(-119.09 -37.687)" fill="#263238"/>
        <path id="Trazado_905442" data-name="Trazado 905442" d="M267.114,308.106c0-.333,1.9-.6,4.249-.6s4.249.27,4.249.6-1.9.6-4.249.6-4.249-.27-4.249-.6" transform="translate(-178.138 -37.669)" fill="#263238"/>
        <path id="Trazado_905443" data-name="Trazado 905443" d="M263.183,299.5c0,.332-6.819.6-15.228.6s-15.229-.27-15.229-.6,6.817-.6,15.229-.6,15.228.27,15.228.6" transform="translate(-121.2 -39.662)" fill="#263238"/>
        <path id="Trazado_905444" data-name="Trazado 905444" d="M268.3,299.987c0-.332,1.9-.6,4.249-.6s4.249.27,4.249.6-1.9.6-4.249.6-4.249-.27-4.249-.6" transform="translate(-180.864 -39.549)" fill="#263238"/>
        <path id="Trazado_905445" data-name="Trazado 905445" d="M263.451,292.23c0,.332-6.819.6-15.228.6s-15.23-.27-15.23-.6,6.817-.6,15.23-.6,15.228.27,15.228.6" transform="translate(-121.813 -41.344)" fill="#263238"/>
        <path id="Trazado_905446" data-name="Trazado 905446" d="M268.3,292.305c0-.332,1.9-.6,4.249-.6s4.249.27,4.249.6-1.9.6-4.249.6-4.249-.27-4.249-.6" transform="translate(-180.864 -41.327)" fill="#263238"/>
        <path id="Trazado_905447" data-name="Trazado 905447" d="M264.286,283.7c0,.332-6.819.6-15.228.6s-15.23-.27-15.23-.6,6.817-.6,15.23-.6,15.228.27,15.228.6" transform="translate(-123.729 -43.32)" fill="#263238"/>
        <path id="Trazado_905448" data-name="Trazado 905448" d="M269.4,284.186c0-.332,1.9-.6,4.249-.6s4.249.27,4.249.6-1.9.6-4.249.6-4.249-.27-4.249-.6" transform="translate(-183.39 -43.206)" fill="#263238"/>
        <path id="Trazado_905449" data-name="Trazado 905449" d="M264.553,276.429c0,.332-6.819.6-15.228.6s-15.23-.27-15.23-.6,6.817-.6,15.23-.6,15.228.27,15.228.6" transform="translate(-124.341 -45.002)" fill="#263238"/>
        <path id="Trazado_905450" data-name="Trazado 905450" d="M263.1,268.982c0,.333-6.817.6-15.228.6s-15.229-.27-15.229-.6,6.816-.6,15.229-.6,15.228.27,15.228.6" transform="translate(-121.009 -46.726)" fill="#263238"/>
        <path id="Trazado_905451" data-name="Trazado 905451" d="M269.4,276.5c0-.332,1.9-.6,4.249-.6s4.249.27,4.249.6-1.9.6-4.249.6-4.249-.27-4.249-.6" transform="translate(-183.39 -44.985)" fill="#263238"/>
        <path id="Trazado_905452" data-name="Trazado 905452" d="M268.3,268.505c0-.332,1.9-.6,4.249-.6s4.249.27,4.249.6-1.9.6-4.249.6-4.249-.27-4.249-.6" transform="translate(-180.864 -46.836)" fill="#263238"/>
        <path id="Trazado_905453" data-name="Trazado 905453" d="M261.581,261.7c0,.333-6.818.6-15.228.6s-15.23-.27-15.23-.6,6.817-.6,15.23-.6,15.228.27,15.228.6" transform="translate(-117.523 -48.412)" fill="#263238"/>
        <path id="Trazado_905454" data-name="Trazado 905454" d="M266.782,261.222c0-.333,1.9-.6,4.249-.6s4.249.27,4.249.6-1.9.6-4.249.6-4.249-.27-4.249-.6" transform="translate(-177.376 -48.522)" fill="#263238"/>
        <path id="Trazado_905455" data-name="Trazado 905455" d="M260.061,254.416c0,.332-6.818.6-15.228.6s-15.23-.27-15.23-.6,6.817-.6,15.23-.6,15.228.27,15.228.6" transform="translate(-114.035 -50.098)" fill="#263238"/>
        <path id="Trazado_905456" data-name="Trazado 905456" d="M265.262,253.939c0-.333,1.9-.6,4.249-.6s4.249.27,4.249.6-1.9.6-4.249.6-4.249-.27-4.249-.6" transform="translate(-173.889 -50.208)" fill="#263238"/>
        <path id="Trazado_905457" data-name="Trazado 905457" d="M254.558,247.861c0,.332-6.819.6-15.228.6s-15.23-.27-15.23-.6,6.817-.6,15.23-.6,15.228.27,15.228.6" transform="translate(-101.41 -51.615)" fill="#263238"/>
        <path id="Trazado_905458" data-name="Trazado 905458" d="M259.759,247.384c0-.332,1.9-.6,4.249-.6s4.249.27,4.249.6-1.9.6-4.249.6-4.249-.27-4.249-.6" transform="translate(-161.264 -51.725)" fill="#263238"/>
        <path id="Trazado_905459" data-name="Trazado 905459" d="M263.451,333.264c0,.332-6.819.6-15.228.6s-15.23-.27-15.23-.6,6.817-.6,15.23-.6,15.228.27,15.228.6" transform="translate(-121.813 -31.846)" fill="#263238"/>
        <path id="Trazado_905460" data-name="Trazado 905460" d="M267.114,333.339c0-.332,1.9-.6,4.249-.6s4.249.27,4.249.6-1.9.6-4.249.6-4.249-.27-4.249-.6" transform="translate(-178.138 -31.828)" fill="#263238"/>
        <path id="Trazado_905461" data-name="Trazado 905461" d="M262.264,342.461c0,.333-6.818.6-15.228.6s-15.23-.27-15.23-.6,6.817-.6,15.23-.6,15.228.27,15.228.6" transform="translate(-119.09 -29.717)" fill="#263238"/>
        <path id="Trazado_905462" data-name="Trazado 905462" d="M265.927,342.536c0-.332,1.9-.6,4.249-.6s4.249.27,4.249.6-1.9.6-4.249.6-4.249-.27-4.249-.6" transform="translate(-175.415 -29.7)" fill="#263238"/>
        <path id="Trazado_905463" data-name="Trazado 905463" d="M261.89,350.4c0,.332-6.818.6-15.228.6s-15.23-.27-15.23-.6,6.817-.6,15.23-.6,15.228.27,15.228.6" transform="translate(-118.232 -27.878)" fill="#263238"/>
        <path id="Trazado_905464" data-name="Trazado 905464" d="M265.553,350.477c0-.332,1.9-.6,4.249-.6s4.249.27,4.249.6-1.9.6-4.249.6-4.249-.27-4.249-.6" transform="translate(-174.557 -27.861)" fill="#263238"/>
        <path id="Trazado_905465" data-name="Trazado 905465" d="M261.516,358.344c0,.332-6.819.6-15.228.6s-15.23-.27-15.23-.6,6.818-.6,15.23-.6,15.228.27,15.228.6" transform="translate(-117.374 -26.04)" fill="#263238"/>
        <path id="Trazado_905466" data-name="Trazado 905466" d="M265.18,358.419c0-.333,1.9-.6,4.249-.6s4.248.27,4.248.6-1.9.6-4.248.6-4.249-.27-4.249-.6" transform="translate(-173.7 -26.023)" fill="#263238"/>
        <path id="Trazado_905467" data-name="Trazado 905467" d="M261.142,366.286c0,.332-6.818.6-15.228.6s-15.23-.27-15.23-.6,6.817-.6,15.23-.6,15.228.27,15.228.6" transform="translate(-116.515 -24.202)" fill="#263238"/>
        <path id="Trazado_905468" data-name="Trazado 905468" d="M264.805,366.361c0-.332,1.9-.6,4.249-.6s4.249.27,4.249.6-1.9.6-4.249.6-4.249-.27-4.249-.6" transform="translate(-172.84 -24.184)" fill="#263238"/>
        <path id="Trazado_905469" data-name="Trazado 905469" d="M261.007,374.008c0,.333-6.819.6-15.228.6s-15.23-.27-15.23-.6,6.817-.6,15.23-.6,15.228.27,15.228.6" transform="translate(-116.206 -22.414)" fill="#263238"/>
        <path id="Trazado_905470" data-name="Trazado 905470" d="M264.67,374.083c0-.332,1.9-.6,4.249-.6s4.249.27,4.249.6-1.9.6-4.249.6-4.249-.27-4.249-.6" transform="translate(-172.531 -22.397)" fill="#263238"/>
        <path id="Trazado_905471" data-name="Trazado 905471" d="M262.264,381.693c0,.333-6.818.6-15.228.6s-15.23-.27-15.23-.6,6.817-.6,15.23-.6,15.228.27,15.228.6" transform="translate(-119.09 -20.635)" fill="#263238"/>
        <path id="Trazado_905472" data-name="Trazado 905472" d="M265.927,381.768c0-.332,1.9-.6,4.249-.6s4.249.27,4.249.6-1.9.6-4.249.6-4.249-.27-4.249-.6" transform="translate(-175.415 -20.618)" fill="#263238"/>
        <path id="Trazado_905473" data-name="Trazado 905473" d="M265.282,389.853c0,.333-6.819.6-15.228.6s-15.23-.27-15.23-.6,6.817-.6,15.23-.6,15.228.27,15.228.6" transform="translate(-126.014 -18.746)" fill="#263238"/>
        <path id="Trazado_905474" data-name="Trazado 905474" d="M268.945,389.928c0-.332,1.9-.6,4.249-.6s4.249.27,4.249.6-1.9.6-4.249.6-4.249-.27-4.249-.6" transform="translate(-182.339 -18.729)" fill="#263238"/>
        <path id="Trazado_905475" data-name="Trazado 905475" d="M267.556,397.284c0,.333-6.818.6-15.228.6s-15.23-.27-15.23-.6,6.817-.6,15.23-.6,15.228.27,15.228.6" transform="translate(-131.232 -17.026)" fill="#263238"/>
        <path id="Trazado_905476" data-name="Trazado 905476" d="M246.258,421.738a1.175,1.175,0,0,1-.317.015l-.928-.022-3.561-.147c-3.091-.15-7.565-.335-13.093-.532-11.057-.4-26.342-.679-43.226-.6s-32.178.363-43.246.507l-13.108.145-3.565,0-.927-.015a1.143,1.143,0,0,1-.317-.027,1.208,1.208,0,0,1,.316-.038l.925-.049,3.562-.124,13.1-.349c11.065-.261,26.354-.621,43.252-.7s32.19.277,43.248.793c5.529.254,10,.507,13.089.735l3.554.266.923.086a1.14,1.14,0,0,1,.313.051" transform="translate(36.488 -11.675)" fill="#263238"/>
        <path id="Trazado_905477" data-name="Trazado 905477" d="M238.25,432.115c0,.177-24.916.4-55.644.49s-55.651.026-55.652-.151,24.911-.4,55.649-.49,55.647-.026,55.647.152" transform="translate(40.636 -8.868)" fill="#263238"/>
        <path id="Trazado_905478" data-name="Trazado 905478" d="M206.874,400.636a5.313,5.313,0,0,1,.935.228l2.633.772,1.9.573a3.306,3.306,0,0,1,2.1,1.2,1.114,1.114,0,0,1-.327,1.347,3.351,3.351,0,0,1-1.325.643l-2.986.661a131.786,131.786,0,0,1-14.889,2.1c-5.643.494-11.869.741-18.4.862l-33.432.425-10.132.052-2.756-.018a5.459,5.459,0,0,1-.962-.049,5.294,5.294,0,0,1,.959-.079l2.753-.1,10.129-.256,33.426-.613c6.522-.119,12.731-.348,18.356-.809a140.493,140.493,0,0,0,14.846-1.951l2.969-.611a3,3,0,0,0,1.166-.532.755.755,0,0,0,.258-.919c-.335-.622-1.195-.829-1.853-1.057l-1.879-.626-2.594-.885a5.233,5.233,0,0,1-.89-.351" transform="translate(61.399 -16.112)" fill="#263238"/>
      </g>
    </g>
  </g>
</svg>
